<svg xmlns="http://www.w3.org/2000/svg" viewBox="0 0 1024 1024"><defs><style>.cls-1{isolation:isolate;}.cls-2{fill:#43a1ff;}.cls-3{fill:#363f51;}.cls-4{fill:#e75257;}.cls-5{fill:#e8e8e8;}.cls-6{fill:#1b222d;}.cls-7,.cls-8,.cls-9{fill:none;stroke-width:9.47px;}.cls-10,.cls-16,.cls-7,.cls-8,.cls-9{stroke:#fff;stroke-miterlimit:10;}.cls-10,.cls-8,.cls-9{stroke-linecap:round;}.cls-9{stroke-dasharray:18.57 18.57;}.cls-10{fill:#157fa1;stroke-width:12.31px;}.cls-11{opacity:0.4;mix-blend-mode:multiply;}.cls-12{fill:#595959;}.cls-13{fill:#fff;}.cls-14{fill:#3eaadf;}.cls-15{fill:#78d9ff;}.cls-16{fill:#f1911f;stroke-width:5.68px;}.cls-17{fill:#1d8b3b;}.cls-18{fill:#44a93c;}.cls-19{fill:#3b4960;}</style></defs><g class="cls-1"><g id="Layer_1" data-name="Layer 1"><rect class="cls-2" x="-1.14" y="-1.14" width="1026.27" height="1026.27" rx="513.13"/><rect class="cls-3" x="371.73" y="185" width="323.15" height="652.38" rx="40.79"/><rect class="cls-4" x="390.94" y="260.33" width="284.73" height="501.73"/><circle class="cls-5" cx="533.22" cy="795.47" r="19.9"/><circle class="cls-5" cx="478.1" cy="226.15" r="3.33"/><rect class="cls-5" x="503.24" y="224.13" width="65.02" height="4.08" rx="2.04"/><path class="cls-6" d="M694.8,784.42v10.63a42.39,42.39,0,0,1-42.42,42.37L414,837.34A42.4,42.4,0,0,1,371.63,795V784.31A42.38,42.38,0,0,0,414,826.7l238.34.08A42.39,42.39,0,0,0,694.8,784.42Z"/><circle class="cls-7" cx="532.39" cy="498.75" r="59.29"/><path class="cls-8" d="M588.11,470.91l8.36-4.45"/><path class="cls-9" d="M612.87,457.74l155.78-82.83"/><path class="cls-8" d="M776.85,370.55l8.36-4.45"/><path class="cls-8" d="M588.11,537.74l8.36,4.45"/><path class="cls-9" d="M612.87,550.91l155.78,82.83"/><path class="cls-8" d="M776.85,638.1l8.36,4.45"/><path class="cls-10" d="M502.76,498.75H562"/><path class="cls-10" d="M532.39,469.11v59.27"/><g class="cls-11"><rect class="cls-12" x="92.14" y="325.75" width="325.65" height="220.09" transform="translate(-150.07 134.35) rotate(-23.01)"/></g><rect class="cls-13" x="88.35" y="321.96" width="325.65" height="220.09" transform="translate(-148.89 132.57) rotate(-23.01)"/><path class="cls-14" d="M432,474.76,179.35,582.07l-3.67-8.65q31.48-73.39,63-146.8c6.19-14.39,24.19-21.78,38.63-15.8q71.22,29.46,142.49,58.91Z"/><path class="cls-15" d="M380,496.86l-235.43,100a.25.25,0,0,1-.32-.13L112,520.86l37.54-87.47c6.21-14.4,24.21-21.78,38.63-15.79Q259.4,447,330.67,476.5,355.35,486.66,380,496.86Z"/><path class="cls-16" d="M857.12,680.61l24.09,32.89a65.26,65.26,0,0,1-26.73,11.06c-22.9,3.83-40.74-6.13-46-9.34l25.35-34.61"/><path class="cls-16" d="M871.81,655.87a27.31,27.31,0,1,1-27.31-27.31A27.31,27.31,0,0,1,871.81,655.87Z"/><path class="cls-16" d="M856.78,355l24.09,32.89a65.13,65.13,0,0,1-26.73,11.07c-22.9,3.83-40.74-6.13-46-9.35L833.48,355"/><path class="cls-16" d="M871.48,330.23a27.31,27.31,0,1,1-27.31-27.31A27.31,27.31,0,0,1,871.48,330.23Z"/><circle class="cls-7" cx="844.5" cy="341.45" r="59.29"/><circle class="cls-7" cx="844.5" cy="666.93" r="59.29"/><g class="cls-11"><rect class="cls-12" x="235.2" y="507.39" width="147.74" height="218.6" transform="translate(-374.63 708.27) rotate(-71.01)"/></g><rect class="cls-13" x="231.41" y="503.6" width="147.74" height="218.6" transform="translate(-373.6 702.13) rotate(-71.01)"/><path class="cls-17" d="M376.28,715.46l-174.23-60,2-6q48.68-22.47,97.38-44.92c9.55-4.4,21.84,0,26.36,9.47q22.31,46.68,44.62,93.39Q374.38,711.46,376.28,715.46Z"/><path class="cls-18" d="M340.41,703.11,178.05,647.24a.16.16,0,0,1-.1-.21l18-52.32L254,568c9.56-4.4,21.86,0,26.36,9.47Q302.64,624.1,325,670.81,332.71,687,340.41,703.11Z"/><path class="cls-19" d="M541.69,802.39a20.3,20.3,0,0,0-4.18,1.88,5.17,5.17,0,0,1-3.73.66c-.61-.19-1.61-.74-1.68-1.5s.86-1.48,2.69-3c.4-.33.53-.42.74-.59,1-.78,3.43-2.75,3.41-5.3a4.35,4.35,0,0,0-2.21-3.78,4.16,4.16,0,0,0-2.86-.22,6,6,0,0,0-2.42,1.33A12.49,12.49,0,0,0,528,796a9.65,9.65,0,0,0-1.31,4.36,8.71,8.71,0,0,0,.76,3.93,7.41,7.41,0,0,0,2.34,3,7.82,7.82,0,0,0,2.82,1.25,9.86,9.86,0,0,0,3.59.14,10.68,10.68,0,0,0,5.55-2.74c1.54-1.28,1.57-1.9,1.53-2.2a1.66,1.66,0,0,0-1.08-1.27A1.13,1.13,0,0,0,541.69,802.39Zm-11.3-2.22c-.6-.42.21-3.14,1.94-4.64.54-.47,1.63-1.26,2.09-.94s0,1.93-.09,2a5,5,0,0,1-1.2,1.8C532.61,799,530.92,800.55,530.39,800.17Z"/><rect class="cls-19" x="527.99" y="781.93" width="2.52" height="7.34" rx="1.24" transform="translate(-275.38 285.76) rotate(-24.18)"/><rect class="cls-19" x="533.64" y="780.72" width="2.52" height="7.34" rx="1.24" transform="translate(82.24 -50.17) rotate(5.82)"/><rect class="cls-19" x="523.6" y="785.23" width="2.52" height="7.34" rx="1.24" transform="translate(1471.72 824.94) rotate(125.82)"/><rect class="cls-19" x="521.59" y="790.27" width="2.52" height="7.34" rx="1.24" transform="translate(1380.88 384.65) rotate(97.87)"/><rect class="cls-19" x="538.75" y="782.56" width="2.52" height="7.34" rx="1.24" transform="translate(528.1 -167.51) rotate(33.77)"/></g></g></svg>